<svg width="20" height="20" viewBox="0 0 20 20" fill="none" xmlns="http://www.w3.org/2000/svg">
<path d="M15.982 16.7247C15.2833 15.7996 14.3793 15.0493 13.3412 14.5331C12.3031 14.0168 11.1594 13.7487 10 13.7497C8.84066 13.7487 7.6969 14.0168 6.65883 14.5331C5.62077 15.0493 4.71675 15.7996 4.01801 16.7247M15.982 16.7247C17.3455 15.5119 18.3071 13.9133 18.7412 12.1408C19.1753 10.3683 19.0603 8.50579 18.4115 6.80018C17.7627 5.09457 16.6107 3.62648 15.1084 2.5906C13.6061 1.55472 11.8244 1 9.99951 1C8.17467 1 6.39295 1.55472 4.89062 2.5906C3.38829 3.62648 2.23634 5.09457 1.58755 6.80018C0.938753 8.50579 0.823765 10.3683 1.25783 12.1408C1.6919 13.9133 2.65451 15.5119 4.01801 16.7247M15.982 16.7247C14.336 18.1929 12.2056 19.0028 10 18.9997C7.79404 19.0031 5.66425 18.1931 4.01801 16.7247M13 7.74971C13 8.54535 12.6839 9.30842 12.1213 9.87103C11.5587 10.4336 10.7957 10.7497 10 10.7497C9.20436 10.7497 8.4413 10.4336 7.87869 9.87103C7.31608 9.30842 7.00001 8.54535 7.00001 7.74971C7.00001 6.95406 7.31608 6.19099 7.87869 5.62838C8.4413 5.06578 9.20436 4.74971 10 4.74971C10.7957 4.74971 11.5587 5.06578 12.1213 5.62838C12.6839 6.19099 13 6.95406 13 7.74971Z" stroke="#313131" stroke-width="1.5" stroke-linecap="round" stroke-linejoin="round"/>
</svg>
